<?xml version="1.0" encoding="utf-8"?>
<!-- Generator: Adobe Illustrator 23.0.4, SVG Export Plug-In . SVG Version: 6.00 Build 0)  -->
<svg version="1.1" id="Layer_1" xmlns:sketch="http://www.bohemiancoding.com/sketch/ns"
	 xmlns="http://www.w3.org/2000/svg" xmlns:xlink="http://www.w3.org/1999/xlink" x="0px" y="0px" viewBox="0 0 131 21"
	 style="enable-background:new 0 0 131 21;" xml:space="preserve">
<style type="text/css">
	.st0{fill-rule:evenodd;clip-rule:evenodd;fill:#1DAEFF;}
</style>
<title>logo_fa</title>
<desc>Created with Sketch.</desc>
<g id="Page-1" sketch:type="MSPage">
	<g id="Product-Logos" transform="translate(-24.000000, -135.000000)" sketch:type="MSArtboardGroup">
		<g id="logo_fa" transform="translate(24.000000, 135.000000)" sketch:type="MSLayerGroup">
			<path id="Fill-1" sketch:type="MSShapeGroup" class="st0" d="M10.6,12.4c0,1.1-0.9,2.1-2.1,2.1c-1.1,0-2.1-0.9-2.1-2.1
				c0-1.1,0.9-2.1,2.1-2.1C9.6,10.4,10.6,11.3,10.6,12.4"/>
			<path id="Fill-2" sketch:type="MSShapeGroup" class="st0" d="M6.5,5.3C7,4.3,8.2,3.7,9.2,4.2c1.1,0.4,1.6,1.6,1.2,2.7
				C10,7.9,8.8,8.4,7.7,8C6.7,7.6,6.1,6.4,6.5,5.3"/>
			<path id="Fill-3" sketch:type="MSShapeGroup" class="st0" d="M3.1,6.1c1.1-0.5,2.3,0,2.7,1.1c0.5,1,0,2.3-1.1,2.7
				c-1.1,0.5-2.3,0-2.7-1.1C1.6,7.7,2.1,6.5,3.1,6.1z"/>
			<path id="Fill-4" sketch:type="MSShapeGroup" class="st0" d="M1.3,14.4c-1.1-0.4-1.6-1.6-1.2-2.7c0.4-1.1,1.6-1.6,2.7-1.2
				c1.1,0.4,1.6,1.6,1.2,2.7C3.6,14.3,2.4,14.8,1.3,14.4"/>
			<path id="Fill-5" sketch:type="MSShapeGroup" class="st0" d="M4.8,18.8c-1.1,0.5-2.3,0-2.7-1.1c-0.5-1,0-2.3,1.1-2.7
				c1.1-0.5,2.3,0,2.7,1.1C6.3,17.2,5.9,18.4,4.8,18.8"/>
			<path id="Fill-6" sketch:type="MSShapeGroup" class="st0" d="M10.4,19.6c-0.4,1.1-1.6,1.6-2.7,1.2c-1.1-0.4-1.6-1.6-1.2-2.7
				C7,17,8.2,16.4,9.2,16.9C10.3,17.3,10.8,18.5,10.4,19.6"/>
			<path id="Fill-7" sketch:type="MSShapeGroup" class="st0" d="M14.9,16.1c0.5,1,0,2.3-1.1,2.7c-1.1,0.5-2.3,0-2.7-1.1
				c-0.5-1,0-2.3,1.1-2.7C13.2,14.6,14.4,15.1,14.9,16.1"/>
			<path id="Fill-8" sketch:type="MSShapeGroup" class="st0" d="M15.6,10.5c1.1,0.4,1.6,1.6,1.2,2.7c-0.4,1.1-1.6,1.6-2.7,1.2
				s-1.6-1.6-1.2-2.7C13.3,10.6,14.5,10.1,15.6,10.5"/>
			<path id="Fill-9" sketch:type="MSShapeGroup" class="st0" d="M12.2,6.1c1.1-0.5,2.3,0,2.7,1.1c0.5,1,0,2.3-1.1,2.7
				c-1.1,0.5-2.3,0-2.7-1.1C10.6,7.7,11.1,6.5,12.2,6.1"/>
			<path id="Fill-10" sketch:type="MSShapeGroup" class="st0" d="M26.9,9.6H24l-1.9,11h-1.8l1.9-11h-2.6l0.3-1.5h2.6L23,4.7
				c0.1-0.6,0.3-1.2,0.5-1.8c0.2-0.6,0.5-1,0.9-1.5c0.4-0.4,0.8-0.8,1.4-1c0.5-0.2,1.2-0.4,1.9-0.4c0.2,0,0.5,0,0.7,0
				c0.2,0,0.5,0.1,0.7,0.1l-0.4,1.6c-0.4-0.1-0.8-0.2-1.3-0.2c-0.4,0-0.8,0.1-1.1,0.2c-0.3,0.2-0.6,0.4-0.8,0.7
				c-0.2,0.3-0.4,0.6-0.5,1C25,4,24.8,4.4,24.8,4.9l-0.6,3.2h3L26.9,9.6"/>
			<path id="Fill-11" sketch:type="MSShapeGroup" class="st0" d="M35.9,12.9c0.1-0.3,0.1-0.5,0.1-0.7c0-0.2,0-0.3,0-0.5
				c0-0.9-0.3-1.5-0.8-1.9c-0.5-0.4-1.2-0.6-2.2-0.6c-0.7,0-1.5,0.1-2.2,0.4c-0.7,0.3-1.3,0.6-1.7,1.1l-0.8-1.2
				c0.6-0.5,1.4-1,2.2-1.3c0.9-0.3,1.8-0.5,2.6-0.5c0.6,0,1.2,0.1,1.7,0.2c0.5,0.1,1,0.3,1.4,0.6c0.4,0.3,0.7,0.7,1,1.1
				c0.2,0.5,0.4,1,0.4,1.6c0,0.2,0,0.4,0,0.7c0,0.3,0,0.5-0.1,0.7l-0.9,5.1c-0.1,0.5-0.2,1-0.2,1.5c-0.1,0.5-0.1,1-0.1,1.3h-1.6
				c0-0.3,0-0.6,0-1c0-0.4,0.1-0.7,0.1-1h-0.1c-0.4,0.4-0.7,0.8-1.1,1.1c-0.4,0.3-0.7,0.5-1.1,0.7c-0.4,0.2-0.8,0.3-1.2,0.4
				c-0.4,0.1-0.9,0.1-1.4,0.1c-0.4,0-0.9-0.1-1.3-0.2c-0.4-0.1-0.9-0.3-1.2-0.5c-0.4-0.3-0.7-0.6-0.9-1c-0.2-0.4-0.4-0.9-0.4-1.5
				c0-1,0.3-1.8,0.9-2.4c0.6-0.6,1.3-1.1,2.2-1.4c0.9-0.3,1.9-0.6,3.1-0.7C33.6,12.9,34.8,12.9,35.9,12.9L35.9,12.9z M35.3,14.2
				c-0.8,0-1.6,0-2.5,0.1c-0.8,0.1-1.6,0.2-2.3,0.5c-0.7,0.2-1.2,0.5-1.7,0.9c-0.4,0.4-0.7,0.9-0.7,1.6c0,0.4,0.1,0.7,0.2,1
				c0.1,0.3,0.3,0.5,0.6,0.6c0.2,0.2,0.5,0.3,0.8,0.3c0.3,0.1,0.6,0.1,0.9,0.1c0.6,0,1.2-0.1,1.8-0.3c0.5-0.2,1-0.5,1.4-0.9
				c0.4-0.4,0.7-0.8,1-1.3c0.3-0.5,0.5-1,0.6-1.6l0.2-1H35.3L35.3,14.2z"/>
			<path id="Fill-12" sketch:type="MSShapeGroup" class="st0" d="M47.7,10.8c-0.2-0.5-0.6-0.8-1.1-1.1c-0.5-0.3-1.1-0.4-1.8-0.4
				c-0.3,0-0.7,0-1,0.1c-0.3,0.1-0.7,0.2-1,0.3s-0.5,0.4-0.7,0.6c-0.2,0.3-0.3,0.6-0.3,0.9c0,0.3,0.1,0.6,0.2,0.8
				c0.1,0.2,0.3,0.4,0.5,0.5c0.2,0.2,0.5,0.3,0.8,0.4c0.3,0.1,0.7,0.2,1,0.3c1.2,0.4,2.2,0.8,2.8,1.3c0.6,0.5,1,1.3,1,2.3
				c0,0.7-0.2,1.3-0.5,1.7c-0.3,0.5-0.7,0.9-1.1,1.2c-0.5,0.3-1,0.5-1.6,0.7c-0.6,0.1-1.1,0.2-1.7,0.2c-1.1,0-2-0.2-3-0.6
				c-0.9-0.4-1.6-1-2.2-1.8l1.6-1c0.3,0.5,0.8,1,1.4,1.3c0.6,0.4,1.3,0.5,2.1,0.5c0.4,0,0.8,0,1.1-0.1s0.7-0.2,1-0.4
				c0.3-0.2,0.5-0.4,0.7-0.7c0.2-0.3,0.3-0.6,0.3-1c0-0.7-0.3-1.2-0.8-1.5c-0.5-0.3-1.3-0.7-2.3-1c-0.4-0.1-0.7-0.3-1.1-0.4
				c-0.4-0.2-0.7-0.4-1-0.6c-0.3-0.3-0.5-0.6-0.7-0.9c-0.2-0.4-0.3-0.8-0.3-1.3c0-0.6,0.1-1.2,0.4-1.7c0.3-0.5,0.7-0.8,1.1-1.1
				c0.5-0.3,1-0.5,1.5-0.7c0.6-0.1,1.1-0.2,1.7-0.2c1,0,1.8,0.2,2.6,0.6c0.8,0.4,1.3,0.9,1.6,1.5L47.7,10.8"/>
			<path id="Fill-13" sketch:type="MSShapeGroup" class="st0" d="M57.6,9.6h-3.4l-1.3,7.3c-0.1,0.3-0.1,0.6-0.1,0.9
				c0,0.6,0.1,1,0.4,1.2c0.3,0.2,0.7,0.3,1.1,0.3c0.2,0,0.5,0,0.8-0.1c0.3-0.1,0.5-0.2,0.7-0.3l-0.2,1.5c-0.2,0.1-0.5,0.2-0.9,0.3
				c-0.4,0.1-0.8,0.1-1.2,0.1c-0.3,0-0.6,0-0.9-0.1c-0.3-0.1-0.6-0.2-0.9-0.4c-0.3-0.2-0.5-0.4-0.6-0.8c-0.2-0.3-0.3-0.7-0.3-1.2
				c0-0.2,0-0.5,0.1-0.9l1.4-7.8h-2.6l0.3-1.5h2.5l0.6-3.5h1.8l-0.6,3.5h3.4L57.6,9.6"/>
			<path id="Fill-14" sketch:type="MSShapeGroup" class="st0" d="M59,9.1c0.8-0.7,1.7-1.3,2.7-1.7c1-0.4,2.1-0.6,3.2-0.6
				C66,6.8,67,7,67.8,7.3c0.8,0.3,1.4,0.7,1.9,1.3c0.5,0.6,0.8,1.3,1.1,2.2c0.2,0.9,0.3,1.9,0.3,3.1v6.7h-4v-1.4h-0.1
				c-0.3,0.6-0.9,1-1.5,1.3c-0.7,0.3-1.4,0.5-2.2,0.5c-0.5,0-1.1-0.1-1.7-0.2c-0.6-0.1-1.1-0.4-1.6-0.7c-0.5-0.3-0.9-0.7-1.2-1.3
				c-0.3-0.5-0.5-1.2-0.5-2c0-1,0.3-1.7,0.8-2.3c0.5-0.6,1.2-1,2-1.4c0.8-0.3,1.8-0.5,2.8-0.6c1-0.1,2-0.2,3-0.2V12
				c0-0.7-0.2-1.1-0.7-1.5c-0.5-0.3-1-0.5-1.7-0.5c-0.6,0-1.2,0.1-1.8,0.4c-0.6,0.3-1.1,0.6-1.5,1L59,9.1L59,9.1z M67,14.8h-0.6
				c-0.5,0-1,0-1.5,0.1c-0.5,0-0.9,0.1-1.3,0.3c-0.4,0.1-0.7,0.3-0.9,0.5c-0.2,0.2-0.4,0.6-0.4,0.9c0,0.2,0.1,0.5,0.2,0.6
				c0.1,0.2,0.3,0.3,0.4,0.4c0.2,0.1,0.4,0.2,0.6,0.2c0.2,0,0.5,0.1,0.7,0.1c0.9,0,1.6-0.2,2-0.7c0.5-0.5,0.7-1.1,0.7-2V14.8
				L67,14.8z"/>
			<path id="Fill-15" sketch:type="MSShapeGroup" class="st0" d="M82,11.6c-0.2-0.3-0.6-0.6-1-0.8c-0.4-0.2-0.9-0.3-1.3-0.3
				c-0.5,0-0.9,0.1-1.3,0.3c-0.4,0.2-0.7,0.4-1,0.7c-0.3,0.3-0.5,0.7-0.6,1.1c-0.2,0.4-0.2,0.8-0.2,1.3c0,0.5,0.1,0.9,0.2,1.3
				c0.1,0.4,0.4,0.8,0.6,1.1c0.3,0.3,0.6,0.6,1,0.7c0.4,0.2,0.8,0.3,1.3,0.3c0.4,0,0.9-0.1,1.3-0.3c0.4-0.2,0.8-0.4,1.1-0.7l2.4,3
				c-0.6,0.5-1.3,1-2.1,1.3c-0.9,0.3-1.8,0.5-2.8,0.5c-1.1,0-2-0.2-2.9-0.5c-0.9-0.3-1.7-0.8-2.4-1.4c-0.7-0.6-1.2-1.4-1.6-2.2
				c-0.4-0.9-0.6-1.9-0.6-3c0-1.1,0.2-2.1,0.6-2.9c0.4-0.9,0.9-1.6,1.6-2.2c0.7-0.6,1.5-1.1,2.4-1.4c0.9-0.3,1.9-0.5,2.9-0.5
				c0.5,0,1,0,1.4,0.1c0.5,0.1,0.9,0.2,1.4,0.4c0.4,0.2,0.8,0.3,1.2,0.6c0.4,0.2,0.7,0.5,0.9,0.7L82,11.6"/>
			<path id="Fill-16" sketch:type="MSShapeGroup" class="st0" d="M91.2,10.5v5.1c0,0.6,0.1,1.1,0.4,1.4c0.2,0.3,0.7,0.5,1.3,0.5
				c0.2,0,0.4,0,0.7-0.1c0.2,0,0.4-0.1,0.6-0.2l0.1,3.2c-0.3,0.1-0.7,0.2-1.1,0.3c-0.5,0.1-0.9,0.1-1.4,0.1c-0.9,0-1.6-0.1-2.2-0.3
				c-0.6-0.2-1.1-0.5-1.5-1c-0.4-0.4-0.6-0.9-0.8-1.5c-0.2-0.6-0.2-1.2-0.2-1.9v-5.6h-2.1V7.3h2.1V3.8h4.3v3.5h3.1v3.3H91.2"/>
			<path id="Fill-17" sketch:type="MSShapeGroup" class="st0" d="M100.4,3c0,0.3-0.1,0.7-0.2,0.9c-0.1,0.3-0.3,0.5-0.5,0.8
				c-0.2,0.2-0.5,0.4-0.8,0.5c-0.3,0.1-0.6,0.2-1,0.2c-0.7,0-1.3-0.2-1.8-0.7c-0.5-0.5-0.7-1-0.7-1.7c0-0.3,0.1-0.6,0.2-0.9
				c0.1-0.3,0.3-0.5,0.5-0.8c0.2-0.2,0.5-0.4,0.8-0.5c0.3-0.1,0.6-0.2,1-0.2c0.3,0,0.7,0.1,1,0.2c0.3,0.1,0.6,0.3,0.8,0.5
				c0.2,0.2,0.4,0.5,0.5,0.8C100.4,2.4,100.4,2.7,100.4,3L100.4,3z M95.7,7.3h4.4v13.3h-4.4V7.3z"/>
			<path id="Fill-18" sketch:type="MSShapeGroup" class="st0" d="M116.4,13.8c0,1.1-0.2,2.1-0.6,2.9c-0.4,0.9-0.9,1.6-1.6,2.2
				c-0.7,0.6-1.5,1.1-2.4,1.4C111,20.8,110,21,109,21c-1,0-1.9-0.2-2.8-0.5c-0.9-0.3-1.7-0.8-2.4-1.4c-0.7-0.6-1.2-1.4-1.6-2.2
				c-0.4-0.9-0.6-1.9-0.6-2.9c0-1.1,0.2-2.1,0.6-2.9c0.4-0.9,0.9-1.6,1.6-2.2c0.7-0.6,1.5-1.1,2.4-1.4c0.9-0.3,1.8-0.5,2.8-0.5
				c1,0,2,0.2,2.9,0.5c0.9,0.3,1.7,0.8,2.4,1.4c0.7,0.6,1.2,1.3,1.6,2.2C116.2,11.8,116.4,12.8,116.4,13.8L116.4,13.8z M112.2,13.8
				c0-0.4-0.1-0.8-0.2-1.3c-0.1-0.4-0.3-0.8-0.6-1.1c-0.3-0.3-0.6-0.6-1-0.8c-0.4-0.2-0.8-0.3-1.4-0.3c-0.5,0-1,0.1-1.4,0.3
				c-0.4,0.2-0.7,0.4-1,0.8c-0.3,0.3-0.5,0.7-0.6,1.1c-0.1,0.4-0.2,0.8-0.2,1.3c0,0.4,0.1,0.8,0.2,1.3c0.1,0.4,0.3,0.8,0.6,1.1
				c0.3,0.3,0.6,0.6,1,0.8c0.4,0.2,0.8,0.3,1.4,0.3c0.5,0,1-0.1,1.4-0.3c0.4-0.2,0.7-0.5,1-0.8c0.3-0.3,0.5-0.7,0.6-1.1
				C112.1,14.7,112.2,14.3,112.2,13.8L112.2,13.8z"/>
			<path id="Fill-19" sketch:type="MSShapeGroup" class="st0" d="M126.6,20.5v-7.2c0-0.4,0-0.7-0.1-1.1c-0.1-0.3-0.2-0.6-0.3-0.9
				c-0.1-0.3-0.3-0.5-0.6-0.6c-0.3-0.2-0.6-0.2-1-0.2c-0.4,0-0.7,0.1-1,0.2c-0.3,0.2-0.5,0.4-0.7,0.6c-0.2,0.3-0.3,0.6-0.4,0.9
				c-0.1,0.3-0.1,0.7-0.1,1.1v7.2h-4.4V7.3h4.2v1.8h0.1c0.2-0.3,0.4-0.6,0.6-0.8c0.3-0.3,0.6-0.5,0.9-0.7c0.3-0.2,0.7-0.4,1.1-0.5
				c0.4-0.1,0.8-0.2,1.3-0.2c0.9,0,1.6,0.2,2.3,0.5c0.6,0.3,1.1,0.7,1.5,1.2c0.4,0.5,0.7,1.1,0.8,1.7c0.2,0.7,0.3,1.3,0.3,2v8.2
				H126.6"/>
		</g>
	</g>
</g>
</svg>
